<svg width="40" height="40" viewBox="0 0 40 40" fill="none" xmlns="http://www.w3.org/2000/svg">
<g id="Group">
<g id="Clip path group">
<mask id="mask0_506_1962" style="mask-type:luminance" maskUnits="userSpaceOnUse" x="0" y="0" width="40" height="40">
<g id="27a10230c6">
<path id="Vector" d="M0 0H40V40H0V0Z" fill="white"/>
</g>
</mask>
<g mask="url(#mask0_506_1962)">
<g id="Group_2">
<path id="Vector_2" d="M19.9779 0C8.96192 0 0 8.96141 0 19.9779C0 30.9939 8.96192 39.9554 19.9779 39.9554C30.9939 39.9554 39.9554 30.9939 39.9554 19.9779C39.9554 8.96141 30.9939 0 19.9779 0ZM31.0725 34.513C30.9924 34.3883 30.8805 34.2852 30.744 34.2149L26.3357 32.0125C25.9277 31.7647 25.1955 29.9867 24.6726 28.027C25.6717 27.6006 27.541 26.757 28.6268 25.9857C28.9527 25.7543 29.0676 25.3233 28.9014 24.959C28.888 24.9287 27.4928 21.8221 27.4928 16.3983C27.4928 9.93381 24.7157 6.65589 19.237 6.65589C19.0173 6.65589 18.8044 6.74415 18.6479 6.89912L18.1347 7.41174C15.3382 7.63496 12.4646 10.4664 12.4646 16.3968C12.4646 21.8206 11.0714 24.9271 11.056 24.9569C10.8898 25.3217 11.0047 25.7528 11.3311 25.9842C12.4164 26.7549 14.2857 27.599 15.2848 28.0255C14.7619 29.9831 14.0363 31.7595 13.6684 31.9843L9.21336 34.2118C9.07687 34.2801 8.96346 34.3832 8.88342 34.5079C4.50688 31.1587 1.66513 25.898 1.66513 19.9728C1.66513 9.87582 9.88095 1.66 19.9779 1.66C30.0749 1.66 38.2907 9.87582 38.2907 19.9728C38.2907 25.9026 35.449 31.1633 31.0725 34.513Z" fill="#BFC463"/>
</g>
</g>
</g>
</g>
</svg>
