<svg width="40" height="40" viewBox="0 0 40 40" fill="none" xmlns="http://www.w3.org/2000/svg">
<g id="logos:whatsapp-icon" clip-path="url(#clip0_947_14558)">
<path id="Vector" d="M0.847068 19.7606C0.846138 23.1214 1.72428 26.4029 3.39404 29.2953L0.687378 39.1778L10.8009 36.526C13.5981 38.0488 16.7323 38.8467 19.9171 38.847H19.9255C30.4395 38.847 38.9981 30.2915 39.0026 19.7757C39.0046 14.68 37.022 9.88837 33.4198 6.28341C29.8182 2.67876 25.0283 0.692557 19.9247 0.690231C9.40955 0.690231 0.851564 9.24527 0.847223 19.7606" fill="url(#paint0_linear_947_14558)"/>
<path id="Vector_2" d="M0.165891 19.7544C0.164806 23.2361 1.07442 26.635 2.80372 29.631L0 39.8678L10.4761 37.1209C13.3626 38.6947 16.6126 39.5245 19.9195 39.5257H19.9281C30.8192 39.5257 39.6853 30.6625 39.6899 19.7702C39.6918 14.4915 37.6378 9.5276 33.907 5.79349C30.1757 2.05984 25.2144 0.00217054 19.9281 0C9.03504 0 0.170233 8.86202 0.165891 19.7544ZM6.40481 29.115L6.01364 28.4941C4.3693 25.8795 3.5014 22.8581 3.50264 19.7557C3.50605 10.7022 10.8741 3.33643 19.9343 3.33643C24.3219 3.33829 28.4453 5.04868 31.5467 8.15194C34.6479 11.2555 36.3544 15.3811 36.3533 19.769C36.3493 28.8225 28.9811 36.1891 19.9281 36.1891H19.9216C16.9738 36.1876 14.0828 35.396 11.5616 33.9L10.9616 33.5442L4.74481 35.1741L6.40481 29.115Z" fill="url(#paint1_linear_947_14558)"/>
<path id="Vector_3" d="M14.9889 11.4958C14.619 10.6736 14.2297 10.6571 13.8779 10.6426C13.5899 10.6302 13.2605 10.6312 12.9316 10.6312C12.6023 10.6312 12.0672 10.755 11.615 11.2488C11.1623 11.7431 9.8866 12.9375 9.8866 15.3668C9.8866 17.7961 11.6561 20.144 11.9027 20.4738C12.1497 20.8029 15.3187 25.9478 20.3376 27.927C24.5088 29.5718 25.3576 29.2447 26.2629 29.1622C27.1683 29.08 29.1844 27.9681 29.5957 26.815C30.0074 25.6622 30.0074 24.674 29.884 24.4674C29.7605 24.2617 29.4312 24.1381 28.9374 23.8913C28.4436 23.6445 26.0159 22.4498 25.5633 22.285C25.1106 22.1203 24.7815 22.0381 24.4522 22.5326C24.1229 23.0262 23.1773 24.1381 22.8891 24.4674C22.6012 24.7975 22.313 24.8386 21.8193 24.5916C21.3252 24.3439 19.735 23.8231 17.8483 22.1411C16.3804 20.8322 15.3894 19.216 15.1013 18.7216C14.8133 18.2279 15.0705 17.9603 15.3181 17.7143C15.5399 17.493 15.812 17.1377 16.0592 16.8495C16.3054 16.5611 16.3875 16.3554 16.5522 16.026C16.717 15.6964 16.6345 15.4081 16.5112 15.1611C16.3875 14.9141 15.428 12.4721 14.9889 11.4958Z" fill="white"/>
</g>
<defs>
<linearGradient id="paint0_linear_947_14558" x1="1916.45" y1="3849.45" x2="1916.45" y2="0.690231" gradientUnits="userSpaceOnUse">
<stop stop-color="#1FAF38"/>
<stop offset="1" stop-color="#60D669"/>
</linearGradient>
<linearGradient id="paint1_linear_947_14558" x1="1984.5" y1="3986.78" x2="1984.5" y2="0" gradientUnits="userSpaceOnUse">
<stop stop-color="#F9F9F9"/>
<stop offset="1" stop-color="white"/>
</linearGradient>
<clipPath id="clip0_947_14558">
<rect width="39.69" height="40" fill="white"/>
</clipPath>
</defs>
</svg>
