<svg width="40" height="40" viewBox="0 0 40 40" fill="none" xmlns="http://www.w3.org/2000/svg">
<g id="Group">
<path id="Vector" d="M19.9997 0C8.97143 0 0 8.97143 0 20.0003C0 31.0286 8.97143 40 19.9997 40C20.2016 40 20.3984 39.9748 20.5998 39.9702L20.6701 39.9836C20.7251 39.9933 20.7785 40 20.8335 40C20.91 40 20.9881 39.9902 21.0616 39.9682L21.1551 39.9414C31.645 39.3368 40 30.6382 40 20.0003C40 8.97143 31.0286 0 19.9997 0ZM31.8865 33.9315C31.8084 33.6767 31.6317 33.4615 31.3748 33.3767L26.9882 31.9168C25.4569 31.2782 24.7433 28.8268 24.5769 27.8436C25.7117 26.7884 26.7602 25.2165 26.7602 23.7966C26.7602 23.3132 26.8968 23.1282 26.8701 23.1231C27.13 23.0584 27.3417 22.8734 27.4419 22.6248C27.5235 22.4198 28.2417 20.5885 28.2417 19.3535C28.2417 19.2852 28.2335 19.2169 28.2165 19.1516C28.1117 18.7334 27.8667 18.3117 27.4999 18.0482V14.1681C27.4999 11.7701 26.7699 10.7648 25.9968 10.1833C25.8232 8.98992 24.545 6.66846 19.9997 6.66846C15.3532 6.66846 12.5001 11.0365 12.5001 14.1681V18.0482C12.1333 18.3117 11.8883 18.7334 11.7835 19.1516C11.7665 19.2184 11.7583 19.2867 11.7583 19.3535C11.7583 20.5885 12.4765 22.4198 12.5581 22.6248C12.6583 22.8734 12.7898 23.0317 13.0498 23.0969C13.1032 23.1282 13.2398 23.3152 13.2398 23.7966C13.2398 25.2165 14.2883 26.7884 15.4231 27.8436C15.2582 28.8248 14.5519 31.2752 13.0683 31.8952L8.62313 33.3767C8.36833 33.4615 8.18494 33.6716 8.1048 33.9264C4.16978 30.5616 1.66339 25.5714 1.66339 20.0003C1.66339 9.89148 9.8884 1.66647 19.9967 1.66647C30.1049 1.66647 38.3299 9.89148 38.3299 20.0003C38.3335 25.5735 35.8251 30.5667 31.8865 33.9315Z" fill="#BFC463"/>
</g>
</svg>
