<svg width="56" height="56" viewBox="0 0 56 56" fill="none" xmlns="http://www.w3.org/2000/svg">
<g id="whatsapp">
<path id="Vector" d="M46.8571 9.20034C41.8857 4.22891 35.1142 1.48605 28.1714 1.48605C13.6 1.48605 1.68567 13.3146 1.68567 27.8861C1.68567 32.6003 2.88567 37.0575 5.19996 41.1718L1.42853 54.8003L15.5714 51.2003C19.4285 53.2575 23.8 54.4575 28.2571 54.4575C42.7428 54.3718 54.5714 42.5432 54.5714 27.8861C54.5714 20.8575 51.8285 14.2575 46.8571 9.20034ZM28.0857 49.9146C24.2285 49.9146 20.2 48.8004 16.8571 46.7432L16 46.2289L7.68567 48.3718L9.99996 40.3146L9.48567 39.4575C7.34281 35.9432 6.14281 31.8289 6.14281 27.7146C6.14281 15.6289 15.9142 5.85748 28.0857 5.85748C33.9142 5.85748 39.4 8.17177 43.5142 12.2861C47.6285 16.4003 49.9428 21.9718 49.9428 27.8861C50.1142 40.1432 40.1714 49.9146 28.0857 49.9146ZM40.1714 33.4575C39.4857 33.1146 36.3142 31.4861 35.5428 31.4003C34.9428 31.1432 34.4285 31.0575 34.0857 31.7432C33.7428 32.4289 32.3714 33.8004 32.0285 34.3146C31.6857 34.6575 31.3428 34.8289 30.5714 34.4003C29.8857 34.0575 27.8285 33.4575 25.2571 31.0575C23.2857 29.3432 21.9142 27.2003 21.6571 26.4289C21.3142 25.7432 21.5714 25.4861 22 25.0575C22.3428 24.7146 22.6857 24.3718 22.9428 23.8575C23.2857 23.5146 23.2857 23.1718 23.6285 22.7432C23.9714 22.4003 23.7142 21.8861 23.5428 21.5432C23.2857 21.2003 22.0857 17.9432 21.4857 16.5718C20.9714 15.2003 20.3714 15.4575 20.0285 15.4575C19.6857 15.4575 19.1714 15.4575 18.8285 15.4575C18.4857 15.4575 17.6285 15.5432 17.1142 16.3146C16.5142 17.0003 14.8 18.6289 14.8 21.8861C14.8 25.1432 17.1142 28.1432 17.5428 28.7432C17.8857 29.0861 22.2571 35.8575 28.7714 38.7718C30.3142 39.4575 31.5142 39.8861 32.5428 40.2289C34.0857 40.7432 35.5428 40.5718 36.6571 40.4861C37.9428 40.4003 40.5142 38.9432 41.1142 37.3146C41.6285 35.8575 41.6285 34.4003 41.4571 34.1432C41.2857 33.9718 40.7714 33.7146 40.1714 33.4575Z" fill="#BFC463"/>
</g>
</svg>
